<?xml version="1.0"?>
<svg xmlns="http://www.w3.org/2000/svg" xmlns:xlink="http://www.w3.org/1999/xlink" xmlns:svgjs="http://svgjs.com/svgjs" version="1.1" width="512" height="512" x="0" y="0" viewBox="0 0 64 64" style="enable-background:new 0 0 512 512" xml:space="preserve" class=""><g transform="matrix(1,0,0,1,0,-3.552713678800501e-15)"><path xmlns="http://www.w3.org/2000/svg" d="m21.859 59.886c3.649.7 8.006 1.171 12.472 1.171 5.631 0 11.436-.75 16.21-2.742 6.837-2.851 10.573-7.731 11.104-14.505.501-6.389-3.044-11.902-8.822-13.717-2.474-.777-5.062-.665-7.632-.132l.882-.777c.276-.243.396-.619.312-.978-.083-.358-.357-.642-.712-.738-1.758-.476-3.108-1.704-4.538-3.005-.624-.568-1.269-1.155-1.958-1.683-2.285-1.752-5.139-2.841-8.982-3.427-3.696-.565-6.814-.508-9.531.171-4.601 1.151-8.236 4.402-9.724 8.695l1.89.655c1.266-3.653 4.376-6.423 8.319-7.41 2.455-.614 5.315-.659 8.744-.134 3.497.533 6.06 1.498 8.067 3.037.622.477 1.208 1.011 1.829 1.575 1.138 1.036 2.305 2.098 3.733 2.825l-2.807 2.475c-1.158.403-2.296.837-3.401 1.26-1.383.53-2.689 1.03-3.931 1.43-4.386 1.41-8.99 1.772-13.313 1.047-1.089-.183-2.184-.51-3.342-.856-.452-.135-.906-.27-1.362-.398-.56-.288-1.944-1.153-2.633-2.256l-1.696 1.06c.11.177.238.34.366.503-1.321-.031-2.66.195-4.019.879-3.271 1.648-5.384 5.075-5.384 8.733 0 13.437 14.947 16.301 19.859 17.242zm-13.576-24.187c.952-.479 1.918-.665 2.901-.665 1.22 0 2.468.286 3.747.647-.118.764-.445 1.957-1.378 2.424l.895 1.789c1.592-.796 2.19-2.475 2.416-3.645.362.106.726.211 1.094.308-.102.856-.452 2.523-1.664 3.735l1.414 1.414c1.539-1.538 2.044-3.551 2.21-4.73.604.097 1.213.173 1.825.231.089 1.199.053 3.582-1.405 5.041l1.414 1.414c1.917-1.917 2.089-4.736 2.005-6.339.471.012.942.02 1.415.009.351 1.12.828 3.591-.915 5.536l1.489 1.335c2.181-2.432 1.897-5.335 1.47-6.991.344-.031.688-.069 1.033-.112.119 1.946.475 5.81 1.47 7.439l1.707-1.043c-.669-1.094-1.059-4.387-1.193-6.705.252-.048.503-.105.755-.159.087 1.768.638 4.877 3.23 7.085l1.297-1.522c-2.227-1.897-2.523-4.782-2.538-6.062.34-.097.681-.187 1.018-.295.001 0 .002-.001.003-.001.303 1.831 1.322 5.053 4.763 6.481l.767-1.848c-2.791-1.158-3.452-4-3.61-5.301.415-.152.847-.318 1.274-.48.415 1.783 1.747 4.2 4.96 5.262l.628-1.899c-2.835-.937-3.521-3.094-3.688-4.084 4.318-1.639 9.066-3.242 13.133-1.964 4.87 1.53 7.854 6.212 7.428 11.652-.468 5.965-3.792 10.277-9.879 12.816-8.152 3.399-19.569 2.979-27.537 1.452-12.443-2.386-18.237-7.24-18.237-15.28 0-2.909 1.681-5.635 4.283-6.945z" fill="#9e06b3" data-original="#000000" style="" class=""/><path xmlns="http://www.w3.org/2000/svg" d="m60.293 5.293-9.057 9.057 6.618-10.829-1.707-1.043-8.325 13.622c-1.565-.235-2.832-.106-2.933-.094-.528.059-.917.519-.888 1.049.03.53.468.945.999.945.55 0 .996.244 1.338.529l-1.192 1.95c-.264.432-.163.994.235 1.307.183.143.401.214.619.214.257 0 .514-.099.708-.293l.703-.703c.068.883.027 2.124-.381 3.754l1.94.485c.755-3.022.455-4.995.178-5.977l.54-.54c.456.222.881.496 1.233.853.957.969 1.322 2.415 1.087 4.297l1.984.248c.315-2.52-.239-4.522-1.647-5.95-.361-.366-.761-.668-1.18-.925l10.542-10.542z" fill="#9e06b3" data-original="#000000" style="" class=""/><path xmlns="http://www.w3.org/2000/svg" d="m42.111 11.735-3.734-2.241c-4.229-2.536-9.346-3.13-14.044-1.627l-16.216 5.189c-1.523.487-2.413 2.085-2.025 3.638.205.819.747 1.523 1.488 1.93.453.249.959.375 1.467.375.324 0 .648-.051.961-.155l17.839-5.947c2.495-.833 5.178-.999 7.758-.483l5.796 1.159c.477.097.954-.167 1.129-.62.175-.454-.002-.968-.419-1.218zm-14.898-.736-17.838 5.947c-.278.094-.575.066-.833-.075s-.439-.376-.51-.662c-.133-.533.172-1.081.694-1.248l16.216-5.189c1.507-.482 3.063-.72 4.614-.72 2.165 0 4.317.464 6.306 1.375-2.88-.552-5.867-.355-8.649.572z" fill="#9e06b3" data-original="#000000" style="" class=""/></g></svg>
